<?xml version="1.0" encoding="utf-8"?>
<!-- Generator: Adobe Illustrator 27.5.0, SVG Export Plug-In . SVG Version: 6.00 Build 0)  -->
<svg version="1.1" id="Calque_1" xmlns="http://www.w3.org/2000/svg" xmlns:xlink="http://www.w3.org/1999/xlink" x="0px" y="0px"
	 viewBox="0 0 40.1 46.3" style="enable-background:new 0 0 40.1 46.3;" xml:space="preserve">
<style type="text/css">
	.st0{fill:#1D1D1B;}
	.st1{fill:#FFFFFF;}
</style>
<g>
	<circle class="st0" cx="20.1" cy="22.7" r="18.3"/>
	<g>
		<rect x="33" y="22.3" class="st1" width="5.4" height="0.8"/>
	</g>
	<g>
		<rect x="1.9" y="22.3" class="st1" width="5.4" height="0.8"/>
	</g>
</g>
<g>
	<g>
		<path class="st1" d="M31.6,17v1.5h-4.5h-0.5V19v2.5V22h0.5h3.2v1.5h-3.2h-0.5v0.5v2.4v2h-1.5v-4.5v-2.4v-4.5h6.5V17z"/>
	</g>
	<g>
		<path class="st1" d="M9.2,34.8v-24h5.5c1.5,0,2.8,0.5,3.8,1.7c1,1,1.7,2.4,1.7,3.9c0,1.5-0.5,2.8-1.5,3.8c1.1,0.4,2,1,2.9,1.9
			c1.4,1.4,2.2,3.2,2.2,5.3s-0.8,3.8-2.2,5.2c-1.4,1.4-3.2,2.2-5.2,2.2H9.2z M12.8,18.5h1.9c0.5,0,0.9-0.3,1.3-0.6
			c0.4-0.4,0.5-0.8,0.5-1.4c0-0.5-0.1-1-0.5-1.4c-0.4-0.4-0.8-0.6-1.3-0.6h-1.9V18.5z M12.8,22.9v5.5v2.7h3.6c1,0,1.9-0.4,2.7-1.1
			s1.1-1.8,1.1-2.9s-0.4-2-1.1-2.8c-0.8-0.8-1.7-1.1-2.7-1.1h-3.6V22.9z"/>
	</g>
</g>
</svg>
