<?xml version="1.0" encoding="utf-8"?>
<!-- Generator: Adobe Illustrator 27.5.0, SVG Export Plug-In . SVG Version: 6.00 Build 0)  -->
<svg version="1.1" id="Calque_1" xmlns="http://www.w3.org/2000/svg" xmlns:xlink="http://www.w3.org/1999/xlink" x="0px" y="0px"
	 viewBox="0 0 150 46.3" style="enable-background:new 0 0 150 46.3;" xml:space="preserve">
<g>
	<g>
		<g>
			<path d="M36.6,32.8V34h-3.5h-0.4v0.4v2v0.4h0.4h2.5v1.2h-2.5h-0.4v0.4v1.9v1.6h-1.2v-3.5v-1.9v-3.5H36.6z"/>
		</g>
		<g>
			<path d="M49.4,41.7h-1.3l-0.7-1.5h-1.9h-1.9L43,41.7h-1.3l3.8-9L49.4,41.7z M45.5,39.3H47c-0.2-0.6-0.5-1.2-0.7-1.8
				c-0.2-0.6-0.5-1.2-0.7-1.8c-0.2,0.6-0.5,1.2-0.7,1.8c-0.2,0.6-0.5,1.2-0.7,1.8H45.5z"/>
		</g>
		<g>
			<path d="M60.3,32.8c0.3,0,0.6,0,0.9,0.1c0.3,0.1,0.6,0.2,0.8,0.3c0.3,0.1,0.5,0.3,0.8,0.4c0.1,0.1,0.3,0.2,0.4,0.3l-0.9,0.9
				c-0.2-0.2-0.5-0.4-0.8-0.5c-0.4-0.2-0.8-0.2-1.3-0.2c-0.4,0-0.9,0.1-1.3,0.2c-0.4,0.2-0.8,0.4-1.1,0.7c-0.3,0.3-0.6,0.7-0.7,1.1
				h0c-0.2,0.4-0.2,0.8-0.2,1.3c0,0.5,0.1,0.9,0.2,1.3c0.2,0.4,0.4,0.8,0.7,1.1c0.3,0.3,0.7,0.6,1.1,0.7c0.4,0.2,0.8,0.2,1.3,0.2
				c0.4,0,0.9-0.1,1.3-0.2c0.3-0.1,0.6-0.3,0.8-0.5l0.9,0.9c-0.1,0.1-0.3,0.2-0.4,0.3c-0.3,0.2-0.5,0.3-0.8,0.4
				c-0.3,0.1-0.6,0.2-0.8,0.3c-0.3,0.1-0.6,0.1-0.9,0.1c-0.6,0-1.2-0.1-1.7-0.3c-0.5-0.2-1-0.6-1.5-1c-0.5-0.4-0.8-0.9-1-1.5
				c-0.2-0.5-0.3-1.1-0.3-1.7c0-0.6,0.1-1.2,0.3-1.7c0.2-0.5,0.5-1,1-1.5c0.4-0.4,0.9-0.8,1.5-1c0.4-0.2,0.8-0.3,1.2-0.3H60.3z"/>
		</g>
		<g>
			<path d="M74.3,32.8h2V34h-2H74v0.4v7.4h-1.2v-7.4V34h-0.4h-2v-1.2h2H74.3z"/>
		</g>
		<g>
			<path d="M88.5,33.1c0.5,0.2,1,0.6,1.5,1c0.4,0.4,0.8,0.9,1,1.5c0.2,0.5,0.3,1.1,0.3,1.7c0,0.6-0.1,1.2-0.3,1.7
				c-0.2,0.5-0.6,1-1,1.5c-0.4,0.4-0.9,0.8-1.5,1c-0.5,0.2-1.1,0.3-1.7,0.3c-0.6,0-1.2-0.1-1.7-0.3c-0.5-0.2-1-0.6-1.5-1
				c-0.5-0.4-0.8-0.9-1-1.5c-0.2-0.5-0.3-1.1-0.3-1.7c0-0.6,0.1-1.2,0.3-1.7c0.2-0.5,0.5-1,1-1.5c0.4-0.4,0.9-0.8,1.5-1
				c0.5-0.2,1.1-0.3,1.7-0.3C87.4,32.7,87.9,32.9,88.5,33.1z M85.5,34.2c-0.4,0.2-0.8,0.4-1.1,0.7c-0.3,0.3-0.6,0.7-0.7,1.1
				c-0.2,0.4-0.2,0.8-0.2,1.3c0,0.5,0.1,0.9,0.2,1.3c0.2,0.4,0.4,0.7,0.7,1.1c0.3,0.3,0.7,0.6,1.1,0.7c0.4,0.2,0.8,0.2,1.3,0.2
				c0.4,0,0.9-0.1,1.3-0.2c0.4-0.2,0.8-0.4,1.1-0.7c0.3-0.3,0.6-0.7,0.7-1.1c0.2-0.4,0.3-0.8,0.3-1.3c0-0.5-0.1-0.9-0.3-1.3
				c-0.2-0.4-0.4-0.7-0.7-1.1c-0.3-0.3-0.7-0.6-1.1-0.7C87.6,34,87.2,34,86.7,34C86.3,34,85.9,34,85.5,34.2z"/>
		</g>
		<g>
			<path d="M98.7,32.8h2.8c0.4,0,0.9,0.1,1.3,0.2c0.4,0.1,0.7,0.4,1,0.6c0.3,0.3,0.5,0.6,0.6,0.9c0.1,0.3,0.2,0.6,0.2,1.1v0.3
				c0,0.3,0,0.6-0.1,0.9c-0.1,0.2-0.2,0.5-0.4,0.8c-0.2,0.2-0.3,0.4-0.4,0.5c-0.1,0.1-0.3,0.2-0.6,0.3l-0.4,0.2l0.2,0.4l1.9,2.9
				h-1.5l-2-3.1H100v3.1h-1.2L98.7,32.8z M101.7,37.4L101.7,37.4c0.2,0,0.5,0,0.6-0.1c0.2-0.1,0.3-0.2,0.5-0.4
				c0.2-0.2,0.3-0.4,0.4-0.6c0.1-0.2,0.1-0.4,0.1-0.7c0-0.2,0-0.5-0.1-0.6c-0.1-0.2-0.2-0.3-0.4-0.5v0c-0.2-0.2-0.4-0.3-0.6-0.4
				c-0.3-0.1-0.5-0.1-0.8-0.1h-1.1h-0.4v0.4V37v0.4h0.4l0.4,0h0.3H101.7z"/>
		</g>
		<g>
			<path d="M112.6,32.8l1.7,3.2l0.3,0.6l0.3-0.6l1.7-3.2h1.4l-2.7,5l0,0.2v3.8H114V38l0-0.2l-2.7-5H112.6z"/>
		</g>
	</g>
	<g>
		<g>
			<g>
				<path d="M24.3,20.9c-1.1-0.5-2.1-1.2-2.9-2c-0.8-0.9-1.5-1.8-2-3c-0.5-1.1-0.7-2.4-0.7-3.6c0-1.3,0.2-2.5,0.7-3.6
					c0.5-1.1,1.1-2.1,2-3c0.8-0.9,1.8-1.5,2.9-2C25.4,3.2,26.7,3,27.9,3c1.2,0,2.5,0.3,3.6,0.7c1.1,0.5,2.1,1.1,2.9,2
					c0.8,0.9,1.5,1.9,2,3c0.5,1.2,0.7,2.4,0.7,3.6c0,1.3-0.2,2.5-0.7,3.6c-0.5,1.1-1.1,2.1-2,3c-0.9,0.9-1.8,1.5-2.9,2
					c-1.1,0.5-2.4,0.7-3.6,0.7C26.7,21.6,25.4,21.3,24.3,20.9z M23.4,7.8c-1.2,1.2-1.9,2.8-1.9,4.5c0,1.7,0.7,3.3,1.9,4.5
					c1.2,1.2,2.8,1.9,4.5,1.9c1.7,0,3.3-0.7,4.5-1.9c1.2-1.2,1.9-2.8,1.9-4.5c0-1.7-0.7-3.3-1.9-4.5c-1.2-1.2-2.8-1.9-4.5-1.9
					C26.2,5.9,24.6,6.6,23.4,7.8z"/>
			</g>
			<g>
				<path d="M56,21.6h-2.9v-8h-7.4v8h-2.9V3h2.9v7.9h7.4V3H56V21.6z"/>
			</g>
			<g>
				<path d="M65.2,10.5h6.7v2.6h-6.7v5.8h8.2v2.6h-8.2h-2.9V3h2.9h8.2v2.6h-8.2V10.5z"/>
			</g>
			<g>
				<path d="M93.7,21.6v-9.9l-5.8,8.7l-5.8-8.7v9.9h-2.9V2.1l8.7,13l8.7-13v19.5H93.7z"/>
			</g>
			<g>
				<path d="M103,21.6V3h2.9v18.6H103z"/>
			</g>
			<g>
				<path d="M122.1,17.6h-6.6l-1.6,4h-3.2l8-19.5l8,19.5h-3.2L122.1,17.6z M121.1,15l-2.2-5.7l-2.2,5.7H121.1z"/>
			</g>
			<g>
				<path d="M134.8,9.6v12h-2.9V2.1l11.6,12.8V3h2.9v19.5L134.8,9.6z"/>
			</g>
		</g>
		<g>
			<path d="M3.1,21.6V2.7h4.3c1.2,0,2.2,0.4,3,1.3c0.8,0.8,1.3,1.9,1.3,3.1c0,1.2-0.4,2.2-1.2,3c0.9,0.3,1.6,0.8,2.3,1.5
				c1.1,1.1,1.7,2.5,1.7,4.2s-0.6,3-1.7,4.1c-1.1,1.1-2.5,1.7-4.1,1.7H3.1z M5.9,8.8h1.5c0.4,0,0.7-0.2,1-0.5C8.7,8,8.8,7.7,8.8,7.2
				c0-0.4-0.1-0.8-0.4-1.1s-0.6-0.5-1-0.5H5.9V8.8z M5.9,12.3v4.3v2.1h2.8c0.8,0,1.5-0.3,2.1-0.9c0.6-0.6,0.9-1.4,0.9-2.3
				c0-0.9-0.3-1.6-0.9-2.2c-0.6-0.6-1.3-0.9-2.1-0.9H5.9z"/>
		</g>
	</g>
	<g>
		<rect x="3.1" y="36.9" width="20.1" height="0.8"/>
	</g>
	<g>
		<rect x="126.1" y="36.7" width="20.3" height="0.8"/>
	</g>
</g>
</svg>
